HIERARCHY
ROOT Hips
{
 OFFSET 0.000000 0.000000 0.000000
 CHANNELS 6 Xposition Yposition Zposition Yrotation Xrotation Zrotation
 JOINT Chest
 {
  OFFSET 0.000000 9.585900 0.002600
  CHANNELS 3 Yrotation Xrotation Zrotation
  JOINT Chest2
  {
   OFFSET 0.000000 9.601200 -0.005300
   CHANNELS 3 Yrotation Xrotation Zrotation
   JOINT Chest3
   {
    OFFSET 0.000000 9.561800 0.000000
    CHANNELS 3 Yrotation Xrotation Zrotation
    JOINT Chest4
    {
     OFFSET 0.000000 9.552100 0.000000
     CHANNELS 3 Yrotation Xrotation Zrotation
     JOINT Neck
     {
      OFFSET 0.000000 14.453000 0.000000
      CHANNELS 3 Yrotation Xrotation Zrotation
      JOINT Head
      {
       OFFSET 0.000000 8.936500 -0.011300
       CHANNELS 3 Yrotation Xrotation Zrotation
       End Site
       {
        OFFSET 0.000000 17.073600 -0.006000
       }
      }
     }
     JOINT RightCollar
     {
      OFFSET -2.921100 9.558500 0.000000
      CHANNELS 3 Yrotation Xrotation Zrotation
      JOINT RightShoulder
      {
       OFFSET -13.519700 0.000000 0.000000
       CHANNELS 3 Yrotation Xrotation Zrotation
       JOINT RightElbow
       {
        OFFSET 0.000000 -29.696600 0.000000
        CHANNELS 3 Yrotation Xrotation Zrotation
        JOINT RightWrist
        {
         OFFSET 0.000000 -24.004700 0.000000
         CHANNELS 3 Yrotation Xrotation Zrotation
         End Site
         {
          OFFSET 0.000000 -17.728500 0.000000
         }
        }
       }
      }
     }
     JOINT LeftCollar
     {
      OFFSET 2.921100 9.558500 0.000000
      CHANNELS 3 Yrotation Xrotation Zrotation
      JOINT LeftShoulder
      {
       OFFSET 13.519700 0.000000 0.000000
       CHANNELS 3 Yrotation Xrotation Zrotation
       JOINT LeftElbow
       {
        OFFSET 0.000000 -29.696600 0.000000
        CHANNELS 3 Yrotation Xrotation Zrotation
        JOINT LeftWrist
        {
         OFFSET 0.000000 -24.004700 0.000000
         CHANNELS 3 Yrotation Xrotation Zrotation
         End Site
         {
          OFFSET 0.000000 -17.728500 0.000000
         }
        }
       }
      }
     }
    }
   }
  }
 }
 JOINT RightHip
 {
  OFFSET -7.771700 -0.012900 -0.001300
  CHANNELS 3 Yrotation Xrotation Zrotation
  JOINT RightKnee
  {
   OFFSET 0.000000 -40.869800 0.001200
   CHANNELS 3 Yrotation Xrotation Zrotation
   JOINT RightAnkle
   {
    OFFSET 0.000000 -39.717900 0.002100
    CHANNELS 3 Yrotation Xrotation Zrotation
    JOINT RightToe
    {
     OFFSET 0.000000 -4.965400 11.033500
     CHANNELS 3 Yrotation Xrotation Zrotation
     End Site
     {
      OFFSET 0.000000 -1.423100 5.872300
     }
    }
   }
  }
 }
 JOINT LeftHip
 {
  OFFSET 7.771700 -0.012900 -0.001300
  CHANNELS 3 Yrotation Xrotation Zrotation
  JOINT LeftKnee
  {
   OFFSET 0.000000 -40.869800 0.001200
   CHANNELS 3 Yrotation Xrotation Zrotation
   JOINT LeftAnkle
   {
    OFFSET 0.000000 -39.717900 0.002100
    CHANNELS 3 Yrotation Xrotation Zrotation
    JOINT LeftToe
    {
     OFFSET 0.000000 -4.965400 11.033500
     CHANNELS 3 Yrotation Xrotation Zrotation
     End Site
     {
      OFFSET 0.000000 -1.423100 5.872300
     }
    }
   }
  }
 }
}
MOTION
Frames: 5
Frame Time: 0.008333
14.743074 49.262386 53.294289 174.813827 -31.410515 -6.959872 6.506716 17.539030 6.017478 0.719689 2.192587 0.569041 1.145214 3.524881 0.910161 5.616849 15.381910 4.664262 -2.762295 16.226604 0.743235 -5.393115 -5.578982 2.356391 -2.033094 -5.350323 -5.180001 3.053945 -0.827007 2.334148 4.196281 -89.862848 -11.613553 1.927342 -4.940702 20.822834 -9.440603 -2.721693 0.554728 4.590998 -1.255572 -1.225328 -94.371059 -66.797777 104.803822 -1.808440 11.744833 -34.269800 1.121056 -49.400335 9.018975 -111.636247 84.165425 -101.145441 -1.759631 -11.744313 -0.353114 -0.272065 0.386165 -0.234406 -9.555127 -52.946865 16.101014 -148.659736 80.462359 -156.990634 0.033662 -16.749584 8.584942 -0.118312 -0.655259 -0.072277
14.755641 49.327978 53.287495 174.852459 -31.344547 -7.036234 6.513938 17.505050 6.097878 0.708350 2.199394 0.569385 1.142543 3.499321 0.898870 5.630609 15.401285 4.679470 -2.759738 16.252143 0.745302 -5.388028 -5.531612 2.358019 -1.964681 -5.435088 -5.254456 3.070613 -0.776867 2.294903 26.755447 -89.840136 -34.106051 2.008117 -4.839344 20.529021 -9.448649 -2.779067 0.568014 4.619636 -1.287266 -1.272820 -94.364629 -66.770648 104.751013 -1.961830 11.887960 -34.827164 1.090247 -49.470829 9.045645 -111.604274 84.082098 -101.057469 -1.687319 -11.756114 -0.368828 -0.294056 0.418541 -0.209153 -9.678627 -52.974632 16.212247 -148.570132 80.480159 -156.901658 0.063164 -16.669291 8.595049 -0.133078 -0.714513 -0.081498
14.771858 49.390003 53.282619 174.887851 -31.292879 -7.132124 6.529342 17.540177 6.221504 0.697002 2.152813 0.549918 1.150525 3.496097 0.896299 5.621909 15.379145 4.670481 -2.743664 16.292216 0.754284 -5.377704 -5.497623 2.349126 -1.928489 -5.479385 -5.293053 3.123674 -0.744739 2.229260 48.545341 -89.800406 -55.825974 2.096290 -4.762936 20.272954 -9.453713 -2.806316 0.568687 4.632817 -1.303315 -1.287697 -94.475892 -66.789905 104.847891 -2.149748 12.073199 -35.449571 1.040241 -49.526924 9.110619 -111.571991 84.034618 -100.969201 -1.621824 -11.727920 -0.418180 -0.337040 0.429225 -0.169119 -9.826995 -52.989212 16.357922 -148.598010 80.502178 -156.921292 0.085997 -16.571017 8.586721 -0.163172 -0.804213 -0.088385
14.783850 49.447072 53.278412 174.927248 -31.253929 -7.203993 6.508297 17.545248 6.291909 0.697945 2.152730 0.550093 1.162522 3.497904 0.898690 5.614778 15.355107 4.657638 -2.731292 16.326058 0.759652 -5.360285 -5.474331 2.333591 -1.827894 -5.565059 -5.374774 3.108398 -0.666761 2.200614 63.130281 -89.753296 -70.329874 2.189485 -4.694534 20.055371 -9.428981 -2.849313 0.588178 4.657321 -1.345017 -1.315330 -94.505803 -66.853868 104.817525 -2.379996 12.250994 -36.125819 1.067695 -49.557109 9.112352 -111.408858 84.011844 -100.725136 -1.623041 -11.712640 -0.480481 -0.333847 0.436808 -0.107158 -9.943835 -52.995907 16.458279 -148.544014 80.519666 -156.863532 0.094379 -16.501567 8.591094 -0.166166 -0.865786 -0.101754
14.794840 49.499269 53.275580 174.949330 -31.228027 -7.262246 6.498628 17.538398 6.347192 0.691107 2.170520 0.559632 1.172973 3.504921 0.899991 5.624277 15.353224 4.660318 -2.735815 16.320629 0.747627 -5.331649 -5.444576 2.315953 -1.738759 -5.672197 -5.471661 3.093765 -0.594486 2.176110 72.038092 -89.715050 -79.146420 2.283322 -4.609982 19.879906 -9.392307 -2.955839 0.619083 4.673791 -1.349836 -1.348236 -94.542047 -66.934295 104.763347 -2.637263 12.431059 -36.840914 1.028203 -49.553645 9.178342 -111.026674 83.967826 -100.321223 -1.606257 -11.740149 -0.523217 -0.332897 0.521083 -0.082706 -10.033517 -52.996508 16.540173 -148.527186 80.537132 -156.840875 0.112656 -16.431842 8.614569 -0.173228 -0.928690 -0.136534
